<!DOCTYPE svg PUBLIC "-//W3C//DTD SVG 1.1//EN" "http://www.w3.org/Graphics/SVG/1.1/DTD/svg11.dtd">

<!-- Uploaded to: SVG Repo, www.svgrepo.com, Transformed by: SVG Repo Mixer Tools -->
<svg fill="#848b93" width="800px" height="800px" viewBox="-2 -4 24 24" xmlns="http://www.w3.org/2000/svg" preserveAspectRatio="xMinYMin" class="jam jam-settings-alt" stroke="#848b93">

<g id="SVGRepo_bgCarrier" stroke-width="0"/>

<g id="SVGRepo_tracerCarrier" stroke-linecap="round" stroke-linejoin="round"/>

<g id="SVGRepo_iconCarrier">

<path d="M9 12V1a1 1 0 1 1 2 0v11h1a1 1 0 0 1 0 2h-1v1a1 1 0 0 1-2 0v-1H8a1 1 0 0 1 0-2h1zm7-10V1a1 1 0 0 1 2 0v1h1a1 1 0 0 1 0 2h-1v11a1 1 0 0 1-2 0V4h-1a1 1 0 0 1 0-2h1zM4 5h1a1 1 0 1 1 0 2H4v8a1 1 0 0 1-2 0V7H1a1 1 0 1 1 0-2h1V1a1 1 0 1 1 2 0v4z"/>

</g>

</svg>