<!DOCTYPE svg PUBLIC "-//W3C//DTD SVG 1.1//EN" "http://www.w3.org/Graphics/SVG/1.1/DTD/svg11.dtd">

<!-- Uploaded to: SVG Repo, www.svgrepo.com, Transformed by: SVG Repo Mixer Tools -->
<svg fill="#ff0000" height="20px" width="20px" version="1.1" id="Layer_1" xmlns="http://www.w3.org/2000/svg" xmlns:xlink="http://www.w3.org/1999/xlink" viewBox="-61.44 -61.44 634.88 634.88" xml:space="preserve" stroke="#ff0000">

<g id="SVGRepo_bgCarrier" stroke-width="0"/>

<g id="SVGRepo_tracerCarrier" stroke-linecap="round" stroke-linejoin="round" stroke="#fa0000" stroke-width="34.816068"> <g> <g> <path d="M368.459,20.727c-44.919,0-85.82,20.784-112.458,54.367c-26.583-33.509-67.448-54.367-112.459-54.367 C64.392,20.727,0,85.119,0,164.267c0,91.398,58.04,172.206,124.794,234.054c60.426,55.986,120.038,89.32,122.546,90.711 c2.693,1.495,5.677,2.242,8.661,2.242c2.983,0,5.968-0.747,8.661-2.242c2.508-1.391,62.121-34.727,122.546-90.711 c66.784-61.878,124.793-142.68,124.793-234.054C512,85.119,447.608,20.727,368.459,20.727z"/> </g> </g> </g>

<g id="SVGRepo_iconCarrier"> <g> <g> <path d="M368.459,20.727c-44.919,0-85.82,20.784-112.458,54.367c-26.583-33.509-67.448-54.367-112.459-54.367 C64.392,20.727,0,85.119,0,164.267c0,91.398,58.04,172.206,124.794,234.054c60.426,55.986,120.038,89.32,122.546,90.711 c2.693,1.495,5.677,2.242,8.661,2.242c2.983,0,5.968-0.747,8.661-2.242c2.508-1.391,62.121-34.727,122.546-90.711 c66.784-61.878,124.793-142.68,124.793-234.054C512,85.119,447.608,20.727,368.459,20.727z"/> </g> </g> </g>

</svg>